<svg width="1033" height="1030" viewBox="0 0 1033 1030" fill="none" xmlns="http://www.w3.org/2000/svg">
<path opacity="0.198405" fill-rule="evenodd" clip-rule="evenodd" d="M516.917 811.052C680.547 811.052 813.195 678.605 813.195 515.223C813.195 351.842 680.547 219.395 516.917 219.395C353.287 219.395 220.639 351.842 220.639 515.223C220.639 678.605 353.287 811.052 516.917 811.052Z" fill="white"/>
<path opacity="0.4" fill-rule="evenodd" clip-rule="evenodd" d="M516.917 167.35C324.628 167.35 168.515 323.226 168.515 515.223C168.515 707.22 324.628 863.097 516.917 863.097C709.205 863.097 865.324 707.22 865.324 515.223C865.324 323.226 709.205 167.35 516.917 167.35ZM516.917 169.859C707.818 169.859 862.812 324.612 862.812 515.223C862.812 705.835 707.818 860.588 516.917 860.588C326.015 860.588 171.028 705.835 171.028 515.223C171.028 324.612 326.015 169.859 516.917 169.859Z" fill="white"/>
<path fill-rule="evenodd" clip-rule="evenodd" d="M516.919 936.594C749.989 936.594 938.929 747.94 938.929 515.224C938.929 282.508 749.989 93.8544 516.919 93.8544C283.849 93.8544 94.9086 282.508 94.9086 515.224C94.9086 747.94 283.849 936.594 516.919 936.594Z" stroke="white" stroke-width="0.5" stroke-dasharray="0.63 0.95"/>
<g opacity="0.283203">
<path fill-rule="evenodd" clip-rule="evenodd" d="M516.5 1029C801.203 1029 1032 798.874 1032 515C1032 231.126 801.203 1 516.5 1C231.797 1 1 231.126 1 515C1 798.874 231.797 1029 516.5 1029Z" stroke="white" stroke-width="0.5" stroke-dasharray="0.63 0.95"/>
</g>
<path fill-rule="evenodd" clip-rule="evenodd" d="M713.522 253.378C713.522 239.634 708.054 226.453 698.321 216.734C688.588 207.016 675.387 201.557 661.622 201.557C586.31 201.557 447.523 201.557 372.211 201.557C358.446 201.557 345.245 207.016 335.512 216.734C325.779 226.453 320.311 239.634 320.311 253.378C320.311 377.245 320.311 689.37 320.311 813.237C320.311 826.981 325.779 840.161 335.512 849.879C345.245 859.598 358.446 865.058 372.211 865.058C447.523 865.058 586.31 865.058 661.622 865.058C675.387 865.058 688.588 859.598 698.321 849.879C708.054 840.161 713.522 826.981 713.522 813.237C713.522 689.37 713.522 377.245 713.522 253.378Z" fill="#5B7CFD"/>
<path fill-rule="evenodd" clip-rule="evenodd" d="M685.099 261.068C685.099 244.024 671.26 230.208 654.19 230.208C590.162 230.208 443.67 230.208 379.642 230.208C362.572 230.208 348.735 244.024 348.735 261.068C348.735 365.008 348.735 701.608 348.735 805.547C348.735 822.591 362.572 836.408 379.642 836.408C443.67 836.408 590.162 836.408 654.19 836.408C671.26 836.408 685.099 822.591 685.099 805.547C685.099 701.608 685.099 365.008 685.099 261.068Z" fill="white"/>
<path fill-rule="evenodd" clip-rule="evenodd" d="M613.91 230.207V243.804C613.91 253.617 605.942 261.572 596.115 261.572C559.195 261.572 474.638 261.572 437.717 261.572C427.89 261.572 419.924 253.617 419.924 243.804V230.207H613.91Z" fill="#5B7CFD"/>
<g filter="url(#filter0_f)">
<path fill-rule="evenodd" clip-rule="evenodd" d="M390.53 391.355C390.53 372.382 375.172 357.002 356.226 357.002H202.833C183.889 357.002 168.53 372.382 168.53 391.355V552.194C168.53 571.168 183.889 586.548 202.833 586.548H356.226C375.172 586.548 390.53 571.168 390.53 552.194V391.355Z" fill="#534545" fill-opacity="0.2"/>
</g>
<path fill-rule="evenodd" clip-rule="evenodd" d="M390.862 371.355C390.862 352.382 375.458 337.002 356.455 337.002H202.604C183.603 337.002 168.198 352.382 168.198 371.355V532.194C168.198 551.168 183.603 566.548 202.604 566.548H356.455C375.458 566.548 390.862 551.168 390.862 532.194V371.355Z" fill="white"/>
<path opacity="0.310175" fill-rule="evenodd" clip-rule="evenodd" d="M233.762 439.652C233.762 413.881 254.717 392.958 280.528 392.958C291.184 392.958 301.014 396.525 308.882 402.528C311.086 404.21 314.242 403.788 315.927 401.588C317.611 399.387 317.19 396.236 314.985 394.553C305.424 387.257 293.479 382.921 280.528 382.921C249.169 382.921 223.71 408.341 223.71 439.652C223.71 442.422 225.962 444.671 228.736 444.671C231.509 444.671 233.762 442.422 233.762 439.652Z" fill="#5B7CFD"/>
<path fill-rule="evenodd" clip-rule="evenodd" d="M308.882 402.528C320.069 411.065 327.293 424.523 327.293 439.652C327.293 442.422 329.545 444.671 332.318 444.671C335.093 444.671 337.344 442.422 337.344 439.652C337.344 421.273 328.574 404.922 314.985 394.553C312.781 392.872 309.624 393.293 307.94 395.493C306.256 397.694 306.678 400.847 308.882 402.528Z" fill="#5B7CFD"/>
<path fill-rule="evenodd" clip-rule="evenodd" d="M240.692 492.951H320.363C321.75 492.951 322.876 491.607 322.876 489.951C322.876 488.295 321.75 486.951 320.363 486.951H240.692C239.305 486.951 238.179 488.295 238.179 489.951C238.179 491.607 239.305 492.951 240.692 492.951Z" fill="#5B7CFD"/>
<path fill-rule="evenodd" clip-rule="evenodd" d="M215.936 518.119H345.121C346.508 518.119 347.633 516.995 347.633 515.61C347.633 514.225 346.508 513.101 345.121 513.101H215.936C214.548 513.101 213.422 514.225 213.422 515.61C213.422 516.995 214.548 518.119 215.936 518.119Z" fill="#5B7CFD"/>
<g opacity="0.246512" filter="url(#filter1_f)">
<path fill-rule="evenodd" clip-rule="evenodd" d="M638 358.027C638 336.569 622.573 319.174 603.542 319.174H449.458C430.429 319.174 415 336.569 415 358.027V486.321C415 507.78 430.429 525.174 449.458 525.174H603.542C622.573 525.174 638 507.78 638 486.321V358.027Z" fill="#534545"/>
</g>
<path fill-rule="evenodd" clip-rule="evenodd" d="M638 328.027C638 306.569 622.573 289.174 603.542 289.174H449.458C430.429 289.174 415 306.569 415 328.027V456.321C415 477.78 430.429 495.174 449.458 495.174H603.542C622.573 495.174 638 477.78 638 456.321V328.027Z" fill="white"/>
<path fill-rule="evenodd" clip-rule="evenodd" d="M436.916 404.704C441.129 403.133 445.901 401.64 451.114 401.399C459.432 401.015 466.689 402.681 474.029 404.101C481.823 405.608 489.707 406.853 498.886 405.507C509.803 403.908 519.223 399.853 526.687 395.417C532.732 391.826 538.109 386.993 547.847 386.297C552.812 385.942 558.075 386.081 562.706 387.158C574.266 389.845 581.16 394.371 595.257 391.868C598.828 391.234 602.093 390.186 605.13 389.01C608.876 387.56 612.156 385.787 615.212 383.937C616.398 383.219 616.777 381.675 616.059 380.49C615.339 379.306 613.793 378.928 612.607 379.645C609.789 381.351 606.768 382.994 603.314 384.331C600.563 385.396 597.611 386.353 594.378 386.927C581.14 389.277 574.701 384.793 563.846 382.27C558.747 381.085 552.956 380.9 547.487 381.291C536.774 382.057 530.767 387.153 524.117 391.105C517.146 395.248 508.352 399.048 498.156 400.542C489.597 401.796 482.252 400.579 474.985 399.174C467.266 397.681 459.63 395.982 450.882 396.386C445.112 396.653 439.82 398.264 435.157 400.004C433.857 400.488 433.197 401.935 433.683 403.233C434.168 404.53 435.617 405.189 436.916 404.704Z" fill="#5B7CFD" fill-opacity="0.3"/>
<path fill-rule="evenodd" clip-rule="evenodd" d="M437.47 402.639C441.556 399.806 446.157 397.08 451.214 396.645C459.366 395.945 466.461 399.022 473.656 401.607C481.658 404.484 489.76 406.812 499.182 404.246C510.198 401.246 519.736 393.681 527.266 385.364C530.401 381.901 533.369 377.887 536.821 374.575C539.933 371.59 543.446 369.179 547.999 368.575C552.77 367.941 557.828 368.177 562.279 370.101C566.692 372.006 570.387 374.478 574.098 376.463C580.32 379.791 586.58 381.861 595.605 378.883C599.25 377.68 602.59 375.7 605.691 373.469C609.442 370.771 612.729 367.473 615.789 364.031C616.71 362.996 616.615 361.408 615.577 360.489C614.541 359.57 612.95 359.664 612.03 360.7C609.214 363.867 606.204 366.915 602.752 369.397C600.066 371.33 597.187 373.075 594.028 374.118C586.655 376.552 581.554 374.758 576.471 372.039C572.644 369.993 568.825 367.461 564.274 365.494C558.993 363.213 552.998 362.848 547.336 363.601C541.662 364.353 537.217 367.235 533.339 370.955C529.802 374.349 526.75 378.451 523.538 381.998C516.635 389.622 507.958 396.654 497.859 399.403C489.546 401.668 482.419 399.423 475.359 396.886C467.493 394.059 459.696 390.881 450.783 391.646C444.856 392.155 439.394 395.195 434.603 398.517C433.464 399.308 433.181 400.872 433.973 402.009C434.763 403.147 436.33 403.429 437.47 402.639Z" fill="#5B7CFD"/>
<path fill-rule="evenodd" clip-rule="evenodd" d="M638 480.487C638 496.884 626.91 510.174 613.229 510.174H439.769C426.089 510.174 415 496.884 415 480.487V447.174H638V480.487Z" fill="#5B7CFD"/>
<path fill-rule="evenodd" clip-rule="evenodd" d="M461.951 472.688H591.585C592.972 472.688 594.098 471.564 594.098 470.179C594.098 468.795 592.972 467.669 591.585 467.669H461.951C460.564 467.669 459.438 468.795 459.438 470.179C459.438 471.564 460.564 472.688 461.951 472.688Z" fill="white"/>
<path fill-rule="evenodd" clip-rule="evenodd" d="M461.95 488.148H529.647C531.035 488.148 532.161 487.024 532.161 485.639C532.161 484.255 531.035 483.13 529.647 483.13H461.95C460.563 483.13 459.437 484.255 459.437 485.639C459.437 487.024 460.563 488.148 461.95 488.148Z" fill="white"/>
<path fill-rule="evenodd" clip-rule="evenodd" d="M637.28 726.257C637.28 715.09 628.213 706.037 617.028 706.037C574.686 706.037 477.212 706.037 434.868 706.037C423.683 706.037 414.616 715.09 414.616 726.257C414.616 737.787 414.616 752.193 414.616 763.723C414.616 774.89 423.683 783.943 434.868 783.943C477.212 783.943 574.686 783.943 617.028 783.943C628.213 783.943 637.28 774.89 637.28 763.723C637.28 752.193 637.28 737.787 637.28 726.257Z" fill="#5B7CFD"/>
<path fill-rule="evenodd" clip-rule="evenodd" d="M450.523 739.768H580.157C581.544 739.768 582.67 738.643 582.67 737.258C582.67 735.874 581.544 734.749 580.157 734.749H450.523C449.136 734.749 448.01 735.874 448.01 737.258C448.01 738.643 449.136 739.768 450.523 739.768Z" fill="white"/>
<path fill-rule="evenodd" clip-rule="evenodd" d="M450.523 755.228H518.221C519.608 755.228 520.734 754.104 520.734 752.719C520.734 751.335 519.608 750.21 518.221 750.21H450.523C449.136 750.21 448.01 751.335 448.01 752.719C448.01 754.104 449.136 755.228 450.523 755.228Z" fill="white"/>
<g opacity="0.201079" filter="url(#filter2_f)">
<path fill-rule="evenodd" clip-rule="evenodd" d="M817.616 604.916C817.616 591.155 804.301 580 787.875 580C725.692 580 582.543 580 520.357 580C503.932 580 490.616 591.155 490.616 604.916C490.616 619.125 490.616 636.875 490.616 651.084C490.616 664.845 503.932 676 520.357 676C582.543 676 725.692 676 787.875 676C804.301 676 817.616 664.845 817.616 651.084C817.616 636.875 817.616 619.125 817.616 604.916Z" fill="#272C2C"/>
</g>
<rect x="491" y="556" width="327" height="106" rx="8" fill="white"/>
<path fill-rule="evenodd" clip-rule="evenodd" d="M606.523 603.768H736.157C737.544 603.768 738.67 602.643 738.67 601.258C738.67 599.874 737.544 598.749 736.157 598.749H606.523C605.136 598.749 604.01 599.874 604.01 601.258C604.01 602.643 605.136 603.768 606.523 603.768Z" fill="#5B7CFD"/>
<path fill-rule="evenodd" clip-rule="evenodd" d="M548 633C561.255 633 572 622.255 572 609C572 595.745 561.255 585 548 585C534.745 585 524 595.745 524 609C524 622.255 534.745 633 548 633Z" fill="#5B7CFD"/>
<path fill-rule="evenodd" clip-rule="evenodd" d="M606.523 619.228H674.221C675.608 619.228 676.734 618.104 676.734 616.719C676.734 615.335 675.608 614.21 674.221 614.21H606.523C605.136 614.21 604.01 615.335 604.01 616.719C604.01 618.104 605.136 619.228 606.523 619.228Z" fill="#5B7CFD"/>
<path fill-rule="evenodd" clip-rule="evenodd" d="M794.001 737.965C802.837 737.965 810 730.813 810 721.99C810 713.167 802.837 706.015 794.001 706.015C785.165 706.015 778.001 713.167 778.001 721.99C778.001 730.813 785.165 737.965 794.001 737.965Z" fill="white"/>
<path fill-rule="evenodd" clip-rule="evenodd" d="M157.183 306.76C166.019 306.76 173.182 299.608 173.182 290.786C173.182 281.963 166.019 274.811 157.183 274.811C148.347 274.811 141.184 281.963 141.184 290.786C141.184 299.608 148.347 306.76 157.183 306.76Z" fill="white"/>
<defs>
<filter id="filter0_f" x="127.755" y="316.227" width="303.548" height="311.095" filterUnits="userSpaceOnUse" color-interpolation-filters="sRGB">
<feFlood flood-opacity="0" result="BackgroundImageFix"/>
<feBlend mode="normal" in="SourceGraphic" in2="BackgroundImageFix" result="shape"/>
<feGaussianBlur stdDeviation="20.3871" result="effect1_foregroundBlur"/>
</filter>
<filter id="filter1_f" x="360.634" y="264.809" width="331.731" height="314.731" filterUnits="userSpaceOnUse" color-interpolation-filters="sRGB">
<feFlood flood-opacity="0" result="BackgroundImageFix"/>
<feBlend mode="normal" in="SourceGraphic" in2="BackgroundImageFix" result="shape"/>
<feGaussianBlur stdDeviation="27.1828" result="effect1_foregroundBlur"/>
</filter>
<filter id="filter2_f" x="436.251" y="525.634" width="435.731" height="204.731" filterUnits="userSpaceOnUse" color-interpolation-filters="sRGB">
<feFlood flood-opacity="0" result="BackgroundImageFix"/>
<feBlend mode="normal" in="SourceGraphic" in2="BackgroundImageFix" result="shape"/>
<feGaussianBlur stdDeviation="27.1828" result="effect1_foregroundBlur"/>
</filter>
</defs>
</svg>
