<svg width="543" height="542" viewBox="0 0 543 542" fill="none" xmlns="http://www.w3.org/2000/svg">
<rect x="55.3223" y="128.887" width="487.678" height="413.113" fill="#00A7AE"/>
<path fill-rule="evenodd" clip-rule="evenodd" d="M357.791 417.525C357.791 419.185 356.445 420.532 354.784 420.532C353.124 420.532 351.777 419.185 351.777 417.525C351.777 415.864 353.124 414.518 354.784 414.518C356.445 414.518 357.791 415.864 357.791 417.525ZM357.791 434.963C357.791 436.624 356.445 437.97 354.784 437.97C353.124 437.97 351.777 436.624 351.777 434.963C351.777 433.303 353.124 431.957 354.784 431.957C356.445 431.957 357.791 433.303 357.791 434.963ZM374.027 420.532C375.687 420.532 377.033 419.185 377.033 417.525C377.033 415.864 375.687 414.518 374.027 414.518C372.366 414.518 371.02 415.864 371.02 417.525C371.02 419.185 372.366 420.532 374.027 420.532ZM377.033 434.963C377.033 436.624 375.687 437.97 374.027 437.97C372.366 437.97 371.02 436.624 371.02 434.963C371.02 433.303 372.366 431.957 374.027 431.957C375.687 431.957 377.033 433.303 377.033 434.963ZM392.668 420.532C394.328 420.532 395.674 419.185 395.674 417.525C395.674 415.864 394.328 414.518 392.668 414.518C391.007 414.518 389.661 415.864 389.661 417.525C389.661 419.185 391.007 420.532 392.668 420.532ZM395.674 434.963C395.674 436.624 394.328 437.97 392.668 437.97C391.007 437.97 389.661 436.624 389.661 434.963C389.661 433.303 391.007 431.957 392.668 431.957C394.328 431.957 395.674 433.303 395.674 434.963ZM411.91 420.532C413.571 420.532 414.917 419.185 414.917 417.525C414.917 415.864 413.571 414.518 411.91 414.518C410.25 414.518 408.904 415.864 408.904 417.525C408.904 419.185 410.25 420.532 411.91 420.532ZM414.917 434.963C414.917 436.624 413.571 437.97 411.91 437.97C410.25 437.97 408.904 436.624 408.904 434.963C408.904 433.303 410.25 431.957 411.91 431.957C413.571 431.957 414.917 433.303 414.917 434.963ZM431.153 420.532C432.813 420.532 434.16 419.185 434.16 417.525C434.16 415.864 432.813 414.518 431.153 414.518C429.492 414.518 428.146 415.864 428.146 417.525C428.146 419.185 429.492 420.532 431.153 420.532ZM434.16 434.963C434.16 436.624 432.813 437.97 431.153 437.97C429.492 437.97 428.146 436.624 428.146 434.963C428.146 433.303 429.492 431.957 431.153 431.957C432.813 431.957 434.16 433.303 434.16 434.963ZM449.794 420.532C451.455 420.532 452.801 419.185 452.801 417.525C452.801 415.864 451.455 414.518 449.794 414.518C448.134 414.518 446.787 415.864 446.787 417.525C446.787 419.185 448.134 420.532 449.794 420.532ZM452.801 434.963C452.801 436.624 451.455 437.97 449.794 437.97C448.134 437.97 446.787 436.624 446.787 434.963C446.787 433.303 448.134 431.957 449.794 431.957C451.455 431.957 452.801 433.303 452.801 434.963ZM469.037 420.532C470.697 420.532 472.043 419.185 472.043 417.525C472.043 415.864 470.697 414.518 469.037 414.518C467.376 414.518 466.03 415.864 466.03 417.525C466.03 419.185 467.376 420.532 469.037 420.532ZM472.043 434.963C472.043 436.624 470.697 437.97 469.037 437.97C467.376 437.97 466.03 436.624 466.03 434.963C466.03 433.303 467.376 431.957 469.037 431.957C470.697 431.957 472.043 433.303 472.043 434.963ZM354.784 455.409C356.445 455.409 357.791 454.063 357.791 452.402C357.791 450.741 356.445 449.395 354.784 449.395C353.124 449.395 351.777 450.741 351.777 452.402C351.777 454.063 353.124 455.409 354.784 455.409ZM377.033 452.402C377.033 454.063 375.687 455.409 374.027 455.409C372.366 455.409 371.02 454.063 371.02 452.402C371.02 450.741 372.366 449.395 374.027 449.395C375.687 449.395 377.033 450.741 377.033 452.402ZM392.668 455.409C394.328 455.409 395.674 454.063 395.674 452.402C395.674 450.741 394.328 449.395 392.668 449.395C391.007 449.395 389.661 450.741 389.661 452.402C389.661 454.063 391.007 455.409 392.668 455.409ZM414.917 452.402C414.917 454.063 413.571 455.409 411.91 455.409C410.25 455.409 408.904 454.063 408.904 452.402C408.904 450.741 410.25 449.395 411.91 449.395C413.571 449.395 414.917 450.741 414.917 452.402ZM431.153 455.409C432.813 455.409 434.16 454.063 434.16 452.402C434.16 450.741 432.813 449.395 431.153 449.395C429.492 449.395 428.146 450.741 428.146 452.402C428.146 454.063 429.492 455.409 431.153 455.409ZM452.801 452.402C452.801 454.063 451.455 455.409 449.794 455.409C448.134 455.409 446.787 454.063 446.787 452.402C446.787 450.741 448.134 449.395 449.794 449.395C451.455 449.395 452.801 450.741 452.801 452.402ZM469.037 455.409C470.697 455.409 472.043 454.063 472.043 452.402C472.043 450.741 470.697 449.395 469.037 449.395C467.376 449.395 466.03 450.741 466.03 452.402C466.03 454.063 467.376 455.409 469.037 455.409ZM357.791 470.442C357.791 472.102 356.445 473.449 354.784 473.449C353.124 473.449 351.777 472.102 351.777 470.442C351.777 468.781 353.124 467.435 354.784 467.435C356.445 467.435 357.791 468.781 357.791 470.442ZM374.027 473.449C375.687 473.449 377.033 472.102 377.033 470.442C377.033 468.781 375.687 467.435 374.027 467.435C372.366 467.435 371.02 468.781 371.02 470.442C371.02 472.102 372.366 473.449 374.027 473.449ZM395.674 470.442C395.674 472.102 394.328 473.449 392.668 473.449C391.007 473.449 389.661 472.102 389.661 470.442C389.661 468.781 391.007 467.435 392.668 467.435C394.328 467.435 395.674 468.781 395.674 470.442ZM411.91 473.449C413.571 473.449 414.917 472.102 414.917 470.442C414.917 468.781 413.571 467.435 411.91 467.435C410.25 467.435 408.904 468.781 408.904 470.442C408.904 472.102 410.25 473.449 411.91 473.449ZM434.16 470.442C434.16 472.102 432.813 473.449 431.153 473.449C429.492 473.449 428.146 472.102 428.146 470.442C428.146 468.781 429.492 467.435 431.153 467.435C432.813 467.435 434.16 468.781 434.16 470.442ZM449.794 473.449C451.455 473.449 452.801 472.102 452.801 470.442C452.801 468.781 451.455 467.435 449.794 467.435C448.134 467.435 446.787 468.781 446.787 470.442C446.787 472.102 448.134 473.449 449.794 473.449ZM472.043 470.442C472.043 472.102 470.697 473.449 469.037 473.449C467.376 473.449 466.03 472.102 466.03 470.442C466.03 468.781 467.376 467.435 469.037 467.435C470.697 467.435 472.043 468.781 472.043 470.442ZM354.784 490.887C356.445 490.887 357.791 489.541 357.791 487.88C357.791 486.22 356.445 484.874 354.784 484.874C353.124 484.874 351.777 486.22 351.777 487.88C351.777 489.541 353.124 490.887 354.784 490.887ZM377.033 487.88C377.033 489.541 375.687 490.887 374.027 490.887C372.366 490.887 371.02 489.541 371.02 487.88C371.02 486.22 372.366 484.874 374.027 484.874C375.687 484.874 377.033 486.22 377.033 487.88ZM392.668 490.887C394.328 490.887 395.674 489.541 395.674 487.88C395.674 486.22 394.328 484.874 392.668 484.874C391.007 484.874 389.661 486.22 389.661 487.88C389.661 489.541 391.007 490.887 392.668 490.887ZM414.917 487.88C414.917 489.541 413.571 490.887 411.91 490.887C410.25 490.887 408.904 489.541 408.904 487.88C408.904 486.22 410.25 484.874 411.91 484.874C413.571 484.874 414.917 486.22 414.917 487.88ZM431.153 490.887C432.813 490.887 434.16 489.541 434.16 487.88C434.16 486.22 432.813 484.874 431.153 484.874C429.492 484.874 428.146 486.22 428.146 487.88C428.146 489.541 429.492 490.887 431.153 490.887ZM452.801 487.88C452.801 489.541 451.455 490.887 449.794 490.887C448.134 490.887 446.787 489.541 446.787 487.88C446.787 486.22 448.134 484.874 449.794 484.874C451.455 484.874 452.801 486.22 452.801 487.88ZM469.037 490.887C470.697 490.887 472.043 489.541 472.043 487.88C472.043 486.22 470.697 484.874 469.037 484.874C467.376 484.874 466.03 486.22 466.03 487.88C466.03 489.541 467.376 490.887 469.037 490.887ZM357.791 505.319C357.791 506.979 356.445 508.326 354.784 508.326C353.124 508.326 351.777 506.979 351.777 505.319C351.777 503.658 353.124 502.312 354.784 502.312C356.445 502.312 357.791 503.658 357.791 505.319ZM374.027 508.326C375.687 508.326 377.033 506.979 377.033 505.319C377.033 503.658 375.687 502.312 374.027 502.312C372.366 502.312 371.02 503.658 371.02 505.319C371.02 506.979 372.366 508.326 374.027 508.326ZM395.674 505.319C395.674 506.979 394.328 508.326 392.668 508.326C391.007 508.326 389.661 506.979 389.661 505.319C389.661 503.658 391.007 502.312 392.668 502.312C394.328 502.312 395.674 503.658 395.674 505.319ZM411.91 508.326C413.571 508.326 414.917 506.979 414.917 505.319C414.917 503.658 413.571 502.312 411.91 502.312C410.25 502.312 408.904 503.658 408.904 505.319C408.904 506.979 410.25 508.326 411.91 508.326ZM434.16 505.319C434.16 506.979 432.813 508.326 431.153 508.326C429.492 508.326 428.146 506.979 428.146 505.319C428.146 503.658 429.492 502.312 431.153 502.312C432.813 502.312 434.16 503.658 434.16 505.319ZM449.794 508.326C451.455 508.326 452.801 506.979 452.801 505.319C452.801 503.658 451.455 502.312 449.794 502.312C448.134 502.312 446.787 503.658 446.787 505.319C446.787 506.979 448.134 508.326 449.794 508.326ZM472.043 505.319C472.043 506.979 470.697 508.326 469.037 508.326C467.376 508.326 466.03 506.979 466.03 505.319C466.03 503.658 467.376 502.312 469.037 502.312C470.697 502.312 472.043 503.658 472.043 505.319Z" fill="white"/>
<rect y="0.202637" width="436.565" height="478.057" fill="#B5B5B5"/>
<mask id="mask0" mask-type="alpha" maskUnits="userSpaceOnUse" x="0" y="0" width="437" height="479">
<rect y="0.202637" width="436.565" height="478.057" fill="white"/>
</mask>
<g mask="url(#mask0)">
</g>
</svg>
